<?xml version="1.0" encoding="UTF-8" standalone="no"?>
<svg
   width="35"
   height="40"
   viewBox="0 0 3483.3332 4300"
   id="svg15"
   xmlns="http://www.w3.org/2000/svg"
   >

  <g id="logo_O"
     class="logo"
     transform="matrix(4.9427235,0,0,4.8927576,-55999.92,-68693.632)">
    <g>
      <path
         d="m 11924.57,14459.48 c 0,0 0,-279.74 0,-279.74 0,0 -242.2,-139.88 -242.2,-139.88 0,0 -98.06,56.55 -98.06,56.55 0,0 242.32,139.88 242.32,139.88 0,0 0,279.84 0,279.84 z"
         id="path1" />
      <path
         class="fil0 str0"
         d="m 11786.35,14372.77 c 0,0 0,-113.22 0,-113.22 0,0 -242.33,-139.87 -242.33,-139.87 0,0 -242.32,139.87 -242.32,139.87 0,0 0,113.22 0,113.22 0,0 242.32,-139.87 242.32,-139.87 z"
         id="path2" />
      <path
         class="fil0 str0"
         d="m 11399.76,14755.59 c 0,0 0,-279.75 0,-279.75 0,0 242.33,-139.98 242.33,-139.98 0,0 -98.07,-56.56 -98.07,-56.56 0,0 -242.32,139.88 -242.32,139.88 0,0 0,279.85 0,279.85 z"
         id="path3" />
      <path
         class="fil0 str0"
         d="m 11538.11,14442.42 c 0,0 -98.07,56.56 -98.07,56.56 0,0 0,279.87 0,279.87 0,0 242.33,139.86 242.33,139.86 0,0 97.95,-56.55 97.95,-56.55 0,0 -242.21,-139.99 -242.21,-139.99 0,0 0,-279.75 0,-279.75 z"
         id="path4" />
      <path
         class="fil0 str0"
         d="m 11578.26,14699.04 c 0,0 242.33,139.87 242.33,139.87 0,0 242.33,-139.87 242.33,-139.87 0,0 0,-113.22 0,-113.22 0,0 -242.33,139.87 -242.33,139.87 0,0 -242.33,-139.87 -242.33,-139.87 z"
         id="path5" />
      <path
         class="fil0 str0"
         d="m 12062.92,14539.29 c 0,0 0,-279.74 0,-279.74 0,0 -98.07,-56.66 -98.07,-56.66 0,0 0,279.85 0,279.85 0,0 -242.33,139.88 -242.33,139.88 0,0 98.07,56.66 98.07,56.66 z"
         id="path6" />
    </g>
  </g>
</svg>
