<svg xmlns="http://www.w3.org/2000/svg" width="260px" height="60px" viewBox="0 0 260 60">
 <g id="" class="">
  <path class="fil0" d="M210 29c0,0 0,-16 0,-16 0,0 -14,-8 -14,-8 0,0 -5,3 -5,3 0,0 14,8 14,8 0,0 0,16 0,16 0,0 5,-3 5,-3z"/>
  <path class="fil0" d="M202 24c0,0 0,-7 0,-7 0,0 -14,-8 -14,-8 0,0 -13,8 -13,8 0,0 0,7 0,7 0,0 13,-8 13,-8 0,0 14,8 14,8z"/>
  <path class="fil0" d="M180 46c0,0 0,-16 0,-16 0,0 14,-8 14,-8 0,0 -6,-4 -6,-4 0,0 -13,8 -13,8 0,0 0,16 0,16 0,0 5,4 5,4z"/>
  <path class="fil0" d="M188 28c0,0 -5,3 -5,3 0,0 0,16 0,16 0,0 13,8 13,8 0,0 6,-3 6,-3 0,0 -14,-8 -14,-8 0,0 0,-16 0,-16z"/>
  <path class="fil0" d="M190 42c0,0 14,8 14,8 0,0 14,-8 14,-8 0,0 0,-6 0,-6 0,0 -14,8 -14,8 0,0 -14,-8 -14,-8 0,0 0,6 0,6z"/>
  <path class="fil0" d="M218 33c0,0 0,-16 0,-16 0,0 -5,-3 -5,-3 0,0 0,16 0,16 0,0 -14,8 -14,8 0,0 5,3 5,3 0,0 14,-8 14,-8z"/>
  <path class="fil0" d="M27 28c0,0 0,-4 0,-4 0,-1 0,-1 -1,-1 0,0 -22,0 -22,0 0,-4 2,-7 6,-7 0,0 17,0 17,0 5,0 7,3 7,7 0,0 0,5 0,5 0,0 -7,0 -7,0z"/>
  <path class="fil0" d="M34 34c0,0 0,6 0,6 0,4 -2,6 -7,6 0,0 -17,0 -17,0 -4,0 -6,-2 -6,-6 0,0 0,-12 0,-12 0,0 6,0 6,0 0,0 0,11 0,11 0,0 1,1 1,1 0,0 15,0 15,0 1,0 1,-1 1,-1 0,0 0,-5 0,-5 0,0 7,0 7,0z"/>
  <path class="fil0" d="M46 46c0,0 -6,0 -6,0 0,0 0,-18 0,-18 0,0 0,0 0,0 0,0 0,0 0,0 0,0 22,0 22,0 1,0 1,0 1,-1 0,0 0,-3 0,-3 0,-1 0,-1 -1,-1 0,0 -22,0 -22,0 0,0 0,-7 0,-7 0,0 23,0 23,0 5,0 7,3 7,7 0,0 0,0 0,0 0,0 0,5 0,5 0,1 -1,2 -2,3 1,1 2,2 2,3 0,0 0,0 0,0 0,0 0,12 0,12 0,0 -7,0 -7,0 0,0 0,-11 0,-11 0,0 0,-1 -1,-1 0,0 -16,0 -16,0 0,0 0,12 0,12z"/>
  <path class="fil0" d="M76 23c0,0 0,-7 0,-7 0,0 26,0 26,0 0,0 -1,7 -1,7 0,0 -25,0 -25,0z"/>
  <path class="fil0" d="M82 34c0,0 0,5 0,5 0,0 1,1 1,1 0,0 19,0 19,0 0,0 -1,6 -1,6 0,0 -19,0 -19,0 -4,0 -6,-2 -6,-6 0,0 0,-12 0,-12 0,0 25,0 25,0 0,0 0,6 0,6 0,0 -19,0 -19,0z"/>
  <path class="fil0" d="M114 46c0,0 -6,0 -6,0 0,0 0,-18 0,-18 0,0 23,0 23,0 0,0 0,-5 0,-5 0,0 -23,0 -23,0 0,-4 2,-7 6,-7 0,0 17,0 17,0 4,0 6,3 6,7 0,0 1,0 1,0 0,0 0,23 0,23 0,0 -7,0 -7,0 0,0 0,-12 0,-12 0,0 -17,0 -17,0 0,0 0,12 0,12z"/>
  <path class="fil0" d="M144 23c0,0 0,-7 0,-7 0,0 25,0 25,0 0,0 0,7 0,7 0,0 -25,0 -25,0z"/>
  <path class="fil0" d="M160 28c0,0 0,18 0,18 0,0 -7,0 -7,0 0,0 0,-18 0,-18 0,0 7,0 7,0z"/>
  <path class="fil0" d="M230 46c0,0 -6,0 -6,0 0,0 0,-18 0,-18 0,0 0,0 0,0 0,0 0,0 0,0 0,0 22,0 22,0 1,0 1,0 1,-1 0,0 0,-3 0,-3 0,-1 0,-1 -1,-1 0,0 -22,0 -22,0 0,0 0,-7 0,-7 0,0 23,0 23,0 4,0 7,3 7,7 0,0 0,0 0,0 0,0 0,5 0,5 0,1 -1,2 -3,3 2,1 3,2 3,3 0,0 0,0 0,0 0,0 0,12 0,12 0,0 -7,0 -7,0 0,0 0,-11 0,-11 0,0 0,-1 -1,-1 0,0 -16,0 -16,0 0,0 0,12 0,12z"/>
 </g>
</svg>
